<?xml version="1.0" encoding="UTF-8" standalone="no"?> <!-- Created with Vectornator for iOS (http://vectornator.io/) --><!DOCTYPE svg PUBLIC "-//W3C//DTD SVG 1.1//EN" "http://www.w3.org/Graphics/SVG/1.1/DTD/svg11.dtd">
<svg height="100%" style="fill-rule:nonzero;clip-rule:evenodd;stroke-linecap:round;stroke-linejoin:round;" xmlns:xlink="http://www.w3.org/1999/xlink" xmlns="http://www.w3.org/2000/svg" xml:space="preserve" width="100%" xmlns:vectornator="http://vectornator.io" version="1.1" viewBox="0 0 1024 1024">
<metadata>
<vectornator:setting key="DimensionsVisible" value="1"/>
<vectornator:setting key="PencilOnly" value="1"/>
<vectornator:setting key="SnapToPoints" value="0"/>
<vectornator:setting key="GuidesVisible" value="1"/>
<vectornator:setting key="CMYKEnabledKey" value="0"/>
<vectornator:setting key="OutlineMode" value="0"/>
<vectornator:setting key="SnapToEdges" value="0"/>
<vectornator:setting key="RulersVisible" value="1"/>
<vectornator:setting key="DisplayWhiteBackground" value="0"/>
<vectornator:setting key="doHistoryDisabled" value="0"/>
<vectornator:setting key="TimeLapseWatermarkDisabled" value="0"/>
<vectornator:setting key="SnapToGuides" value="1"/>
<vectornator:setting key="Units" value="Pixels"/>
<vectornator:setting key="IsolateActiveLayer" value="0"/>
<vectornator:setting key="DynamicGuides" value="0"/>
<vectornator:setting key="SnapToGrid" value="0"/>
</metadata>
<defs/>
<g id="Layer 1" vectornator:layerName="Layer 1">
<path d="M144.188-137.812C131.443-137.759+118.702-137.188+106-135.875C73.3212-132.496+41.1725-124.24+11.25-110.594C-17.5061-97.4791-43.895-78.9972-63.7812-54.1875C-67.7111-49.2847-71.4271-44.1996-74.8125-38.9062C-76.6365-36.0542-78.4128-33.1438-80.0625-30.1875C-81.8856-26.9204-83.5875-23.5858-85.2188-20.2188C-86.6124-17.342-87.8985-14.4206-89.125-11.4688C-90.2025-8.87548-91.2043-6.23568-92.1562-3.59375C-96.2089+7.65337-99.0024+19.4047-100.594+31.25C-101.017+34.397-101.389+37.5523-101.625+40.7188C-101.919+44.6648-102.119+48.6061-102.188+52.5625C-102.248+56.0677-102.181+59.5912-102.031+63.0938C-101.483+75.9568-99.4251+88.708-96.3125+101.188C-96.2104+101.597-96.0739+101.998-95.9688+102.406C-96.0886+110.197-96.1069+117.989-96.0938+125.781C-96.0533+149.724-95.9132+173.677-94.6875+197.594C-94.1828+207.443-93.4956+217.281-92.9062+227.125C-91.8593+244.612-90.8928+262.11-90.4688+279.625C-90.085+295.475-90.1446+311.335-90.3438+327.188C-90.7014+355.657-91.9372+384.129-93.9062+412.531C-95.4257+434.448-97.4385+456.331-99.6562+478.188C-101.252+493.917-102.942+509.64-104.781+525.344C-105.438+530.956-106.094+536.555-106.844+542.156C-108.057+551.216-109.438+560.256-110.438+569.344C-111.49+578.912-112.137+588.518-112.719+598.125C-113.459+610.356-113.953+622.614-114.719+634.844C-115.234+643.08-115.977+651.3-116.562+659.531C-117.039+666.24-117.418+672.933-117.625+679.656C-117.64+680.144-117.643+680.637-117.656+681.125C-117.681+681.73-117.731+682.332-117.75+682.938C-117.797+684.446-117.738+685.959-117.75+687.469C-117.754+687.822-117.778+688.178-117.781+688.531C-117.786+689.139-117.777+689.736-117.781+690.344C-117.781+690.396-117.782+690.448-117.781+690.5C-117.782+690.622-117.782+690.794-117.781+690.719C-117.774+691.864-117.802+693.011-117.781+694.156C-117.759+695.37-117.735+696.407-117.688+697.656C-117.662+698.321-117.735+699.007-117.594+699.656C-113.983+716.3-110.157+732.88-106.438+749.5C-103.958+754.694-102.824+760.792-99+765.094C-98.5186+765.635-98.0684+766.256-97.5938+766.812C-97.5936+766.844-97.5939+766.874-97.5938+766.906C-97.5932+766.917-97.5943+766.927-97.5938+766.938C-97.5933+766.948-97.5942+766.958-97.5938+766.969C-97.5933+767.196-97.5918+767.429-97.5938+767.656C-97.6025+768.695-97.6452+769.743-97.6875+770.781C-97.8172+773.964-98.0383+777.136-98.2812+780.312C-98.9674+789.281-99.7974+798.242-100.375+807.219C-101.011+817.1-101.442+827.002-101.375+836.906C-101.267+852.836-100.058+868.73-98.0625+884.531C-96.9288+893.508-95.5545+902.456-94.0312+911.375C-92.9968+917.432-91.5697+923.455-91.0938+929.594C-89.8544+945.578-89.1421+961.647-86.875+977.531C-85.1781+989.42-82.5259+1001.2-78.8125+1012.62C-69.4054+1041.57-53.2176+1068.07-31.3438+1089.28C-22.9797+1097.39-13.8337+1104.46-4.1875+1110.97C58.9705+1152.62+140.778+1143.34+193.281+1093.25C202.23+1098.07+211.304+1102.67+220.594+1106.81C248.518+1119.28+277.585+1129.12+307.562+1135.28C321.658+1138.18+335.951+1140.19+350.25+1141.78C361.088+1142.99+371.963+1143.86+382.812+1144.94C384.308+1145.09+385.788+1145.24+387.281+1145.41C387.712+1145.46+388.131+1145.51+388.562+1145.56C388.737+1145.58+388.809+1145.59+389.094+1145.62C389.477+1145.68+389.867+1145.73+390.25+1145.78C390.892+1145.87+391.545+1145.97+392.188+1146.06C394.501+1146.4+396.825+1146.85+399.156+1147.09C399.816+1147.21+400.467+1147.31+401.125+1147.44C403.876+1147.95+406.627+1148.47+409.375+1149C413.398+1149.78+417.424+1150.65+421.438+1151.47C441.887+1155.66+462.369+1159.6+483.156+1161.72C502.815+1163.72+522.593+1164.24+542.344+1164.12C559.94+1164.02+577.528+1163.21+595.125+1163.56C616.383+1163.98+637.639+1164.95+658.906+1164.81C670.107+1164.74+681.291+1164.39+692.469+1163.66C709.768+1162.52+727.013+1160.55+744.188+1158.22C765.009+1155.39+785.755+1152+806.062+1146.5C818.357+1143.17+830.447+1139.14+842.219+1134.31C850.843+1139.17+859.435+1144.1+868.312+1148.5C898.314+1163.36+930.727+1172.66+964.375+1173.09C981.36+1173.31+998.432+1171.37+1014.84+1166.94C1039.3+1160.34+1062.17+1148.45+1081.56+1132.16C1087.07+1127.53+1092.3+1122.56+1097.19+1117.28C1099.22+1115.09+1101.22+1112.87+1103.12+1110.56C1105.5+1107.69+1107.81+1104.75+1110.03+1101.75C1111.98+1099.11+1113.82+1096.4+1115.62+1093.66C1120.12+1086.81+1124.08+1079.63+1127.62+1072.25C1130.69+1065.86+1133.36+1059.29+1135.75+1052.62C1138.52+1044.89+1140.87+1036.99+1143.53+1029.22C1147.23+1018.42+1151.38+1007.79+1154.66+996.844C1156.87+989.433+1158.83+981.835+1160.44+974.281C1167+943.468+1167.56+911.715+1164.22+880.469C1163.05+869.587+1161.44+858.76+1159.62+847.969C1158.07+838.708+1156.31+829.465+1155.06+820.156C1151.73+795.365+1150.52+770.32+1148.44+745.406C1146.84+726.232+1144.51+707.131+1142.78+687.969C1142.22+681.73+1141.83+675.846+1141.41+669.781C1141.18+663.93+1140.79+658.079+1140.94+652.219C1141.47+631.767+1143.17+611.07+1144.25+590.531C1146.27+551.928+1146.41+513.212+1149.38+474.656C1150.8+456.067+1153.03+437.577+1154.91+419.031C1157.21+396.278+1159.05+373.413+1159.19+350.531C1159.28+335.214+1158.48+319.931+1157.41+304.656C1156.65+293.919+1155.66+283.165+1155.25+272.406C1154.95+264.642+1155.31+256.89+1155.44+249.125C1155.63+237.81+1155.67+226.452+1154.88+215.156C1154.22+205.786+1153.03+196.528+1151.22+187.312C1150.3+182.652+1149.18+178.016+1148.03+173.406C1148.03+173.396+1148.03+173.385+1148.03+173.375C1148+173.26+1147.97+173.146+1147.94+173.031C1147.92+172.947+1147.93+172.864+1147.91+172.781C1147.9+172.74+1147.89+172.697+1147.88+172.656C1147.83+172.409+1147.79+172.154+1147.75+171.906C1147.62+171.15+1147.5+170.386+1147.41+169.625C1147.31+168.876+1147.22+168.128+1147.16+167.375C1147.15+167.271+1147.13+167.167+1147.12+167.062C1147.13+166.802+1147.15+166.497+1147.16+166.375C1147.17+166.012+1147.18+165.644+1147.19+165.281C1147.21+164.432+1147.22+163.599+1147.25+162.75C1147.34+159.984+1147.44+157.205+1147.5+154.438C1147.73+143.082+1147.45+131.71+1146.28+120.406C1143.87+97.1879+1137.99+74.4449+1129.78+52.625C1124.1+37.5373+1117.54+22.7372+1109.16+8.9375C1100.92-4.63348+1091.12-17.0802+1080.03-28.4375C1074.83-33.7622+1069.29-38.7867+1063.56-43.5312C1044.42-59.3811+1022.72-71.9532+999.656-81.1562C983.503-87.6016+966.701-92.3938+949.656-95.8125C938.023-98.1458+926.262-99.8378+914.469-101.125C900.04-102.7+885.542-103.662+871.094-105.031C859.853-106.096+848.637-107.28+837.406-108.438C806.776-116.165+775.659-122.118+744.406-126.531C674.826-136.357+604.307-138.454+534.156-135.281C509.167-134.151+484.222-132.261+459.281-130.375C436.319-128.639+413.339-126.905+390.312-126.312C375.576-125.933+360.873-126.559+346.156-127.281C334.105-127.873+322.048-128.476+310-129.125C288.203-130.298+266.418-131.536+244.625-132.781C234.564-133.356+224.496-133.884+214.438-134.5C203.754-135.154+193.091-135.985+182.406-136.625C169.676-137.387+156.932-137.866+144.188-137.812Z" opacity="1" fill="#15bbff"/>
</g>
</svg>
