<?xml version="1.0" encoding="UTF-8" standalone="no"?> <!-- Created with Vectornator for iOS (http://vectornator.io/) --><!DOCTYPE svg PUBLIC "-//W3C//DTD SVG 1.1//EN" "http://www.w3.org/Graphics/SVG/1.1/DTD/svg11.dtd">
<svg height="100%" style="fill-rule:nonzero;clip-rule:evenodd;stroke-linecap:round;stroke-linejoin:round;" xmlns:xlink="http://www.w3.org/1999/xlink" xmlns="http://www.w3.org/2000/svg" xml:space="preserve" width="100%" xmlns:vectornator="http://vectornator.io" version="1.1" viewBox="0 0 1024 1024">
<metadata>
<vectornator:setting key="DimensionsVisible" value="1"/>
<vectornator:setting key="PencilOnly" value="1"/>
<vectornator:setting key="SnapToPoints" value="0"/>
<vectornator:setting key="OutlineMode" value="0"/>
<vectornator:setting key="RulersVisible" value="1"/>
<vectornator:setting key="CMYKEnabledKey" value="0"/>
<vectornator:setting key="SnapToEdges" value="0"/>
<vectornator:setting key="GuidesVisible" value="1"/>
<vectornator:setting key="DisplayWhiteBackground" value="0"/>
<vectornator:setting key="doHistoryDisabled" value="0"/>
<vectornator:setting key="SnapToGuides" value="1"/>
<vectornator:setting key="TimeLapseWatermarkDisabled" value="0"/>
<vectornator:setting key="Units" value="Pixels"/>
<vectornator:setting key="SnapToGrid" value="0"/>
<vectornator:setting key="DynamicGuides" value="0"/>
<vectornator:setting key="IsolateActiveLayer" value="0"/>
</metadata>
<defs/>
<g id="Layer 1" vectornator:layerName="Layer 1">
<path d="M124.429+27.7259L124.429+27.7259C112.33+27.7259+102.522+38.8374+102.522+52.5442L102.522+967.638C102.522+981.345+112.33+992.456+124.429+992.456L124.429+992.456C136.528+992.456+146.336+981.345+146.336+967.638L146.336+52.5442C146.336+38.8374+136.528+27.7259+124.429+27.7259Z" opacity="1" fill="#150000"/>
<path d="M129.027+26.1097L770.482+26.1097C785.008+26.1097+796.784+39.2298+796.784+55.4142L796.784+55.4142C796.784+71.5986+785.008+84.7187+770.482+84.7187L129.027+84.7187C114.501+84.7187+102.725+71.5986+102.725+55.4142L102.725+55.4142C102.725+39.2298+114.501+26.1097+129.027+26.1097Z" opacity="1" fill="#150000"/>
<path d="M123.18+928.674L493.663+928.674C505.295+928.674+514.724+944.834+514.724+964.769L514.724+964.769C514.724+984.703+505.295+1000.86+493.663+1000.86L123.18+1000.86C111.548+1000.86+102.119+984.703+102.119+964.769L102.119+964.769C102.119+944.834+111.548+928.674+123.18+928.674Z" opacity="1" fill="#150000"/>
<path d="M771.749+26.2597C756.938+26.2597+744.93+35.7746+744.93+47.481L744.93+554.517C744.93+566.223+756.938+575.681+771.749+575.681C786.56+575.681+798.567+566.223+798.567+554.517L798.567+47.481C798.567+35.7746+786.56+26.2597+771.749+26.2597Z" opacity="1" fill="#150000"/>
<path d="M417.051+322.192L646.163+322.192C655.45+322.192+662.978+331.264+662.978+342.454L662.978+342.454C662.978+353.645+655.45+362.717+646.163+362.717L417.051+362.717C407.765+362.717+400.237+353.645+400.237+342.454L400.237+342.454C400.237+331.264+407.765+322.192+417.051+322.192Z" opacity="1" fill="#150000"/>
<path d="M220.178+410.334C210.91+410.334+203.427+418.682+203.427+428.945C203.427+439.209+210.91+447.505+220.178+447.505L648.336+447.505C657.604+447.506+665.087+439.209+665.087+428.945C665.087+418.682+657.604+410.334+648.336+410.334L220.178+410.334Z" opacity="1" fill="#150000"/>
<path d="M384.541+505.391C377.999+505.391+372.684+513.564+372.684+523.666C372.684+533.768+377.999+541.942+384.541+541.942L619.707+541.942C626.249+541.942+631.565+533.768+631.565+523.666C631.565+513.564+626.249+505.391+619.707+505.391L384.541+505.391Z" opacity="1" fill="#150000"/>
<path d="M215.175+128.543L215.175+128.543C223.198+128.543+229.702+133.169+229.702+138.875L229.702+329.848C229.702+335.554+223.198+340.18+215.175+340.18L215.175+340.18C207.152+340.18+200.648+335.554+200.648+329.848L200.648+138.875C200.648+133.169+207.152+128.543+215.175+128.543Z" opacity="1" fill="#150000"/>
<path d="M211.472+300.273L356.863+300.273C362.488+300.273+367.047+309.577+367.047+321.055L367.047+321.055C367.047+332.532+362.488+341.836+356.863+341.836L211.472+341.836C205.847+341.836+201.288+332.532+201.288+321.055L201.288+321.055C201.288+309.577+205.847+300.273+211.472+300.273Z" opacity="1" fill="#150000"/>
<path d="M210.697+128.543L356.12+128.543C361.578+128.543+366.003+136.067+366.003+145.349L366.003+145.349C366.003+154.631+361.578+162.155+356.12+162.155L210.697+162.155C205.239+162.155+200.814+154.631+200.814+145.349L200.814+145.349C200.814+136.067+205.239+128.543+210.697+128.543Z" opacity="1" fill="#150000"/>
<path d="M351.583+128.7L351.583+128.7C360.064+128.7+366.939+133.466+366.939+139.344L366.939+325.261C366.939+331.139+360.064+335.905+351.583+335.905L351.583+335.905C343.102+335.905+336.226+331.139+336.226+325.261L336.226+139.344C336.226+133.466+343.102+128.7+351.583+128.7Z" opacity="1" fill="#150000"/>
<path d="M239.199+655.501L278.554+609.968" opacity="1" fill="none"/>
<path stroke="#000000" stroke-width="1" d="M213.125+505.148L296.239+505.148C302.957+505.148+308.403+513.964+308.403+524.838L308.403+524.838C308.403+535.713+302.957+544.529+296.239+544.529L213.125+544.529C206.406+544.529+200.96+535.713+200.96+524.838L200.96+524.838C200.96+513.964+206.406+505.148+213.125+505.148Z" fill="#150000" stroke-linecap="round" opacity="1" stroke-linejoin="round"/>
<path stroke="#000000" stroke-width="22.3783" d="M329.918+487.067L296.066+526.518" fill="none" stroke-linecap="round" opacity="1" stroke-linejoin="round"/>
<path stroke="#000000" stroke-width="22.3783" d="M330.233+487.743L384.937+523.396" fill="none" stroke-linecap="round" opacity="1" stroke-linejoin="round"/>
<path d="M211.202+600.653C203.106+600.653+196.524+610.421+196.524+622.465C196.524+634.509+203.106+644.277+211.202+644.277L496.862+644.277C504.959+644.277+511.509+634.509+511.509+622.465C511.509+610.421+504.959+600.653+496.862+600.653L211.202+600.653Z" opacity="1" fill="#150000"/>
</g>
<g id="Layer 2 copy" vectornator:layerName="Layer 2 copy">
<path stroke="#000000" stroke-width="18.9976" d="M781.745+503.494L760.53+526.412L781.745+503.494Z" fill="none" stroke-linecap="round" opacity="1" stroke-linejoin="round"/>
<path stroke="#000000" stroke-width="18.9976" d="M758.828+473.295L758.644+526.412L758.828+473.295Z" fill="none" stroke-linecap="round" opacity="1" stroke-linejoin="round"/>
<path d="M209.727+702.94C202.299+702.939+196.294+712.731+196.294+724.781C196.294+736.831+202.299+746.572+209.727+746.572L436.673+746.572C444.101+746.572+450.106+736.831+450.106+724.781C450.106+712.731+444.101+702.94+436.673+702.94L209.727+702.94Z" opacity="1" fill="#150000"/>
<path d="M545.672+603L545.672+603C556.839+603+565.891+613.166+565.891+625.706L565.891+928.768C565.891+941.308+556.839+951.474+545.672+951.474L545.672+951.474C534.506+951.474+525.453+941.308+525.453+928.768L525.453+625.706C525.453+613.166+534.506+603+545.672+603Z" opacity="1" fill="#150000"/>
<path d="M546.287+602.021L869.098+602.021C880.075+602.021+888.974+611.935+888.974+624.165L888.974+624.165C888.974+636.395+880.075+646.309+869.098+646.309L546.287+646.309C535.31+646.309+526.411+636.395+526.411+624.165L526.411+624.165C526.411+611.935+535.31+602.021+546.287+602.021Z" opacity="1" fill="#150000"/>
<path d="M546.181+918.168L973.417+918.168C984.363+918.168+993.237+925.63+993.237+934.835L993.237+934.835C993.237+944.039+984.363+951.501+973.417+951.501L546.181+951.501C535.235+951.501+526.361+944.039+526.361+934.835L526.361+934.835C526.361+925.63+535.235+918.168+546.181+918.168Z" opacity="1" fill="#150000"/>
<path d="M874.722+601.696L874.722+601.696C883.826+601.696+891.206+609.919+891.206+620.062L891.206+756.738C891.206+766.881+883.826+775.104+874.722+775.104L874.722+775.104C865.618+775.104+858.237+766.881+858.237+756.738L858.237+620.062C858.237+609.919+865.618+601.696+874.722+601.696Z" opacity="1" fill="#150000"/>
<path d="M877.381+741.844L976.65+741.844C987.116+741.844+995.601+749.313+995.601+758.526L995.601+758.526C995.601+767.74+987.116+775.208+976.65+775.208L877.381+775.208C866.914+775.208+858.429+767.74+858.429+758.526L858.429+758.526C858.429+749.313+866.914+741.844+877.381+741.844Z" opacity="1" fill="#150000"/>
<path d="M981.076+744.06L981.076+744.06C990.68+744.06+998.466+750.532+998.466+758.516L998.466+937.5C998.466+945.484+990.68+951.956+981.076+951.956L981.076+951.956C971.472+951.956+963.686+945.484+963.686+937.5L963.686+758.516C963.686+750.532+971.472+744.06+981.076+744.06Z" opacity="1" fill="#150000"/>
</g>
<g id="Layer 3 copy" vectornator:layerName="Layer 3 copy">
<path d="M591.648+940.67C591.648+905.875+616.893+877.668+648.035+877.668C679.176+877.668+704.421+905.875+704.421+940.67C704.421+975.465+679.176+1003.67+648.035+1003.67C616.893+1003.67+591.648+975.465+591.648+940.67Z" opacity="1" fill="#150000"/>
</g>
<g id="Layer 3 copy copy" vectornator:layerName="Layer 3 copy copy">
<path d="M801.268+943.533C801.268+908.738+826.513+880.531+857.655+880.531C888.796+880.531+914.041+908.738+914.041+943.533C914.041+978.328+888.796+1006.53+857.655+1006.53C826.513+1006.53+801.268+978.328+801.268+943.533Z" opacity="1" fill="#150000"/>
<path d="M385.606+783.513L610.212+783.513C615.138+783.513+619.131+787.962+619.131+793.45L619.131+793.45C619.131+798.938+615.138+803.387+610.212+803.387L385.606+803.387C380.681+803.387+376.687+798.938+376.687+793.45L376.687+793.45C376.687+787.962+380.681+783.513+385.606+783.513Z" opacity="1" fill="#150000"/>
<path d="M338.514+830.391L683.818+830.391C688.692+830.391+692.643+834.794+692.643+840.224L692.643+840.224C692.643+845.654+688.692+850.056+683.818+850.056L338.514+850.056C333.64+850.056+329.689+845.654+329.689+840.224L329.689+840.224C329.689+834.794+333.64+830.391+338.514+830.391Z" opacity="1" fill="#150000"/>
<path d="M441.579+870.675L578.443+870.675C582.795+870.675+586.323+874.605+586.323+879.453L586.323+879.453C586.323+884.302+582.795+888.232+578.443+888.232L441.579+888.232C437.227+888.232+433.699+884.302+433.699+879.453L433.699+879.453C433.699+874.605+437.227+870.675+441.579+870.675Z" opacity="1" fill="#150000"/>
</g>
</svg>
