<?xml version="1.0" encoding="UTF-8" standalone="no"?> <!-- Created with Vectornator for iOS (http://vectornator.io/) --><!DOCTYPE svg PUBLIC "-//W3C//DTD SVG 1.1//EN" "http://www.w3.org/Graphics/SVG/1.1/DTD/svg11.dtd">
<svg height="100%" style="fill-rule:nonzero;clip-rule:evenodd;stroke-linecap:round;stroke-linejoin:round;" xmlns:xlink="http://www.w3.org/1999/xlink" xmlns="http://www.w3.org/2000/svg" xml:space="preserve" width="100%" xmlns:vectornator="http://vectornator.io" version="1.1" viewBox="0 0 1024 1024">
<metadata>
<vectornator:setting key="DimensionsVisible" value="1"/>
<vectornator:setting key="PencilOnly" value="1"/>
<vectornator:setting key="SnapToPoints" value="0"/>
<vectornator:setting key="GuidesVisible" value="1"/>
<vectornator:setting key="CMYKEnabledKey" value="0"/>
<vectornator:setting key="OutlineMode" value="0"/>
<vectornator:setting key="SnapToEdges" value="0"/>
<vectornator:setting key="RulersVisible" value="1"/>
<vectornator:setting key="DisplayWhiteBackground" value="0"/>
<vectornator:setting key="doHistoryDisabled" value="0"/>
<vectornator:setting key="SnapToGuides" value="1"/>
<vectornator:setting key="TimeLapseWatermarkDisabled" value="0"/>
<vectornator:setting key="DynamicGuides" value="0"/>
<vectornator:setting key="IsolateActiveLayer" value="0"/>
<vectornator:setting key="Units" value="Pixels"/>
<vectornator:setting key="SnapToGrid" value="0"/>
</metadata>
<defs/>
<g id="Layer 1" vectornator:layerName="Layer 1">
<path d="M158.141+6.51152L158.141+6.51152C145.795+6.51152+135.787+17.6294+135.787+31.3441L135.787+946.966C135.787+960.68+145.795+971.798+158.141+971.798L158.141+971.798C170.486+971.798+180.494+960.68+180.494+946.966L180.494+31.3441C180.494+17.6294+170.486+6.51152+158.141+6.51152Z" opacity="1" fill="#150000"/>
<path d="M162.833+4.89437L817.365+4.89437C832.188+4.89437+844.204+18.022+844.204+34.2158L844.204+34.2158C844.204+50.4095+832.188+63.5372+817.365+63.5372L162.833+63.5372C148.011+63.5372+135.995+50.4095+135.995+34.2158L135.995+34.2158C135.995+18.022+148.011+4.89437+162.833+4.89437Z" opacity="1" fill="#150000"/>
<path d="M156.856+907.993C144.987+907.993+135.397+924.162+135.397+944.109C135.397+964.055+144.987+980.225+156.856+980.225L534.907+980.225C546.776+980.225+556.413+964.055+556.413+944.109C556.413+924.162+546.776+907.993+534.907+907.993L156.856+907.993Z" opacity="1" fill="#150000"/>
<path d="M818.668+5.04443C803.555+5.04443+791.292+14.1567+791.292+25.3618L791.292+510.672C791.292+521.877+803.555+530.94+818.668+530.94C833.781+530.94+846.044+521.877+846.044+510.672L846.044+25.3618C846.044+14.1567+833.781+5.0444+818.668+5.04443Z" opacity="1" fill="#150000"/>
<path d="M456.729+301.147L690.512+301.147C699.988+301.147+707.669+310.224+707.669+321.422L707.669+321.422C707.669+332.619+699.988+341.696+690.512+341.696L456.729+341.696C447.253+341.696+439.571+332.619+439.571+321.422L439.571+321.422C439.571+310.224+447.253+301.147+456.729+301.147Z" opacity="1" fill="#150000"/>
<path d="M255.842+389.34C246.385+389.34+238.749+397.693+238.749+407.962C238.749+418.231+246.385+426.533+255.842+426.533L692.729+426.533C702.186+426.533+709.822+418.231+709.822+407.962C709.822+397.693+702.186+389.34+692.729+389.34L255.842+389.34Z" opacity="1" fill="#150000"/>
<path d="M423.556+484.452C416.881+484.452+411.457+492.63+411.457+502.738C411.457+512.846+416.881+521.024+423.556+521.024L663.517+521.024C670.192+521.024+675.616+512.846+675.616+502.738C675.616+492.63+670.192+484.452+663.517+484.452L423.556+484.452Z" opacity="1" fill="#150000"/>
<path d="M250.737+107.386L250.737+107.386C258.924+107.386+265.56+112.015+265.56+117.725L265.56+308.807C265.56+314.517+258.924+319.146+250.737+319.146L250.737+319.146C242.551+319.146+235.914+314.517+235.914+308.807L235.914+117.725C235.914+112.015+242.551+107.386+250.737+107.386Z" opacity="1" fill="#150000"/>
<path d="M246.959+279.216L395.314+279.216C401.053+279.216+405.706+288.526+405.706+300.01L405.706+300.01C405.706+311.494+401.053+320.803+395.314+320.803L246.959+320.803C241.219+320.803+236.567+311.494+236.567+300.01L236.567+300.01C236.567+288.526+241.219+279.216+246.959+279.216Z" opacity="1" fill="#150000"/>
<path d="M246.168+107.386L394.555+107.386C400.125+107.386+404.64+114.915+404.64+124.202L404.64+124.202C404.64+133.49+400.125+141.018+394.555+141.018L246.168+141.018C240.598+141.018+236.083+133.49+236.083+124.202L236.083+124.202C236.083+114.915+240.598+107.386+246.168+107.386Z" opacity="1" fill="#150000"/>
<path d="M389.926+107.544L389.926+107.544C398.58+107.544+405.595+112.312+405.595+118.194L405.595+304.218C405.595+310.1+398.58+314.868+389.926+314.868L389.926+314.868C381.272+314.868+374.256+310.1+374.256+304.218L374.256+118.194C374.256+112.312+381.272+107.544+389.926+107.544Z" opacity="1" fill="#150000"/>
<path d="M275.251+634.649L315.408+589.09" opacity="1" fill="none"/>
<path stroke="#000000" stroke-width="1" d="M248.645+484.209L333.453+484.209C340.308+484.209+345.866+493.03+345.866+503.911L345.866+503.911C345.866+514.792+340.308+523.612+333.453+523.612L248.645+523.612C241.79+523.612+236.233+514.792+236.233+503.911L236.233+503.911C236.233+493.03+241.79+484.209+248.645+484.209Z" fill="#150000" stroke-linecap="round" opacity="1" stroke-linejoin="round"/>
<path stroke="#000000" stroke-width="22.3783" d="M367.82+466.118L333.277+505.591" fill="none" stroke-linecap="round" opacity="1" stroke-linejoin="round"/>
<path stroke="#000000" stroke-width="22.3783" d="M368.14+466.794L423.96+502.467" fill="none" stroke-linecap="round" opacity="1" stroke-linejoin="round"/>
<path d="M246.685+579.769C238.424+579.769+231.706+589.521+231.706+601.572C231.706+613.623+238.424+623.426+246.685+623.426L538.147+623.426C546.408+623.426+553.126+613.623+553.126+601.572C553.126+589.521+546.408+579.769+538.147+579.769L246.685+579.769Z" opacity="1" fill="#150000"/>
</g>
<g id="Layer 2 copy" vectornator:layerName="Layer 2 copy">
<path stroke="#000000" stroke-width="18.9976" d="M828.858+482.554L807.21+505.485L828.858+482.554Z" fill="none" stroke-linecap="round" opacity="1" stroke-linejoin="round"/>
<path stroke="#000000" stroke-width="18.9976" d="M805.473+452.338L805.285+505.485L805.473+452.338Z" fill="none" stroke-linecap="round" opacity="1" stroke-linejoin="round"/>
</g>
<g id="Layer 3 copy copy" vectornator:layerName="Layer 3 copy copy">
<path stroke="#000000" stroke-width="27.7045" d="M563.973+786.409C563.973+664.012+654.626+564.789+766.452+564.789C878.278+564.789+968.93+664.012+968.93+786.409C968.93+908.807+878.278+1008.03+766.452+1008.03C654.626+1008.03+563.973+908.807+563.973+786.409Z" fill="none" stroke-linecap="round" opacity="1" stroke-linejoin="round"/>
<path d="M761.906+637.875C760.931+637.934+759.95+638.081+758.969+638.344C755.128+639.949+757.372+638.762+755.125+639.969C752.771+641.233+750.941+643.442+749.594+645.75C748.432+647.74+748.33+650.185+747.844+652.438C747.74+652.917+747.844+653.416+747.844+653.906C747.843+654.274+747.843+654.663+747.844+655.031C747.85+660.554+747.868+666.071+747.875+671.594C747.914+705.466+747.961+739.347+748.125+773.219C748.155+779.478+748.188+785.71+748.219+791.969C748.221+792.337+748.217+792.726+748.219+793.094C748.222+793.581+748.116+794.086+748.219+794.562C748.693+796.758+748.805+799.123+749.938+801.062C751.25+803.312+753.111+805.379+755.344+806.719C757.556+808.045+760.202+808.782+762.781+808.781C765.36+808.781+768.038+808.046+770.25+806.719C772.483+805.379+774.313+803.311+775.625+801.062C776.757+799.123+776.873+796.758+777.344+794.562C777.446+794.086+777.345+793.581+777.344+793.094C777.342+792.357+777.347+791.611+777.344+790.875C777.313+784.616+777.28+778.353+777.25+772.094C777.186+758.874+777.169+745.658+777.125+732.438C777.173+715.84+777.2+699.223+777.219+682.625C777.226+675.998+777.242+669.377+777.25+662.75C777.253+660.541+777.247+658.334+777.25+656.125C777.25+655.783+777.249+655.436+777.25+655.094C777.609+653.046+777.574+650.89+777+648.75C775.157+641.884+768.736+637.462+761.906+637.875Z" opacity="1" fill="#000000"/>
<path d="M762+784.969C756.573+784.959+751.413+788.128+749.156+793.438C746.147+800.516+749.453+808.678+756.531+811.688C780.874+822.079+805.077+832.841+829.344+843.406C838.032+847.189+846.759+850.86+855.469+854.594C862.945+857.772+871.572+854.289+874.75+846.812C877.928+839.336+874.446+830.71+866.969+827.531C858.236+823.85+849.534+820.132+840.781+816.5C816.335+806.357+791.811+796.381+767.438+786.062C765.668+785.31+763.809+784.972+762+784.969Z" opacity="1" fill="#000000"/>
<g opacity="1">
<path d="M285.915+774.053L554.178+774.053C569.356+774.053+581.661+786.734+581.661+802.376L581.661+802.376C581.661+818.018+569.356+830.698+554.178+830.698L285.915+830.698C270.737+830.698+258.432+818.018+258.432+802.376L258.432+802.376C258.432+786.734+270.737+774.053+285.915+774.053Z" opacity="1" fill="#150000"/>
<path/>
</g>
<path d="M277.156+791.531C272.059+791.121+266.84+793.174+263.406+797.469C257.912+804.34+259.035+814.381+265.906+819.875C270.762+823.781+275.61+827.677+280.406+831.656C287.665+837.679+294.811+843.818+302.094+849.812C306.208+853.199+310.389+856.522+314.531+859.875C321.789+865.678+332.384+864.508+338.188+857.25C343.991+849.993+342.789+839.397+335.531+833.594C331.349+830.29+327.209+826.956+323+823.688C315.55+817.902+307.972+812.287+300.5+806.531C295.563+802.728+290.691+798.846+285.812+794.969C283.236+792.908+280.215+791.777+277.156+791.531Z" opacity="1" fill="#000000"/>
<path d="M327.406+748.938C324.347+749.173+321.334+750.292+318.75+752.344C313.623+756.392+308.497+760.433+303.312+764.406C295.465+770.42+287.512+776.3+279.688+782.344C275.266+785.758+270.894+789.239+266.5+792.688C259.223+798.466+258.003+809.036+263.781+816.312C269.56+823.589+280.161+824.81+287.438+819.031C291.792+815.532+296.173+812.064+300.5+808.531C308.159+802.279+315.678+795.875+323.312+789.594C328.357+785.444+333.459+781.358+338.562+777.281C345.452+771.81+346.596+761.796+341.125+754.906C337.706+750.6+332.505+748.544+327.406+748.938Z" opacity="1" fill="#000000"/>
</g>
</svg>
